<?xml version="1.0" standalone="no"?>
<!DOCTYPE svg PUBLIC "-//W3C//DTD SVG 20010904//EN"
 "http://www.w3.org/TR/2001/REC-SVG-20010904/DTD/svg10.dtd">
<svg version="1.0" xmlns="http://www.w3.org/2000/svg"
 width="512.000000pt" height="512.000000pt" viewBox="0 0 512.000000 512.000000"
 preserveAspectRatio="xMidYMid meet">
<metadata>
Created by potrace 1.14, written by Peter Selinger 2001-2017
</metadata>
<g transform="translate(0.000000,512.000000) scale(0.100000,-0.100000)"
fill="#000000" stroke="none">
<path d="M1869 3856 c-2 -2 -29 -6 -59 -9 -65 -6 -161 -30 -233 -58 -86 -33
-213 -103 -237 -130 -3 -3 -21 -17 -41 -32 -62 -47 -97 -32 -105 45 -13 114
-90 156 -247 133 -23 -4 -114 -30 -202 -60 -401 -133 -666 -277 -724 -394 -38
-74 -15 -130 103 -256 74 -79 103 -129 113 -201 10 -65 10 -1970 0 -2013 -15
-66 -54 -125 -152 -233 -67 -74 -88 -121 -80 -176 13 -85 94 -133 280 -167
155 -28 739 -28 875 0 14 3 39 7 55 10 106 18 208 82 224 141 17 62 -1 101
-105 222 -130 150 -135 169 -137 507 -1 255 4 295 38 295 18 0 65 -21 65 -30
0 -8 114 -90 170 -122 198 -111 460 -148 730 -102 65 11 212 64 279 101 352
195 561 606 564 1113 2 202 -14 334 -59 508 -125 478 -402 792 -784 889 -50
12 -321 28 -331 19z m-158 -628 c163 -75 291 -309 340 -623 14 -90 19 -290 9
-347 -5 -23 -11 -60 -14 -80 -9 -59 -48 -170 -74 -213 -49 -81 -129 -146 -196
-161 -167 -38 -324 41 -426 216 -64 110 -119 286 -136 435 -3 28 -8 61 -10 75
-5 33 -6 249 -1 258 3 4 7 30 11 59 3 29 17 87 31 130 46 146 125 238 235 274
49 16 172 4 231 -23z"/>
<path d="M3720 3850 c-25 -5 -58 -10 -75 -13 -136 -23 -301 -82 -426 -154 -20
-12 -47 -27 -60 -35 -13 -7 -26 -15 -29 -18 -3 -3 -30 -24 -60 -47 -30 -23
-74 -61 -97 -85 l-42 -43 54 -110 c193 -388 252 -918 149 -1339 -8 -33 -17
-72 -20 -85 -7 -36 -68 -190 -98 -249 -14 -28 -26 -56 -26 -61 0 -15 84 -90
169 -152 317 -226 741 -308 1140 -219 385 86 691 331 786 630 62 199 35 336
-70 356 -60 11 -108 -10 -167 -74 -137 -148 -188 -191 -271 -231 -205 -98
-412 -83 -607 44 -184 119 -300 294 -367 553 -18 72 -25 340 -10 417 26 133
71 227 138 290 91 85 212 86 301 1 36 -35 95 -137 154 -271 82 -185 166 -295
262 -344 141 -72 361 -40 458 67 73 78 107 178 106 306 0 50 -3 100 -5 111 -3
11 -8 34 -12 50 -32 138 -127 300 -236 400 -149 137 -363 246 -559 285 -30 5
-66 13 -80 16 -39 9 -349 12 -400 4z"/>
</g>
</svg>
